<?xml version="1.0" encoding="UTF-8" standalone="no"?>
<svg
   width="16"
   height="16"
   viewBox="0 0 16 16"
   fill="none"
   version="1.1"
   id="svg795"
   sodipodi:docname="toolbarButton-viewKnowledgeGraph.svg"
   inkscape:version="1.2.1 (9c6d41e410, 2022-07-14, custom)"
   xmlns:inkscape="http://www.inkscape.org/namespaces/inkscape"
   xmlns:sodipodi="http://sodipodi.sourceforge.net/DTD/sodipodi-0.dtd"
   xmlns="http://www.w3.org/2000/svg"
   xmlns:svg="http://www.w3.org/2000/svg">
  <defs
     id="defs799" />
  <sodipodi:namedview
     id="namedview797"
     pagecolor="#ffffff"
     bordercolor="#111111"
     borderopacity="1"
     inkscape:showpageshadow="0"
     inkscape:pageopacity="0"
     inkscape:pagecheckerboard="1"
     inkscape:deskcolor="#d1d1d1"
     showgrid="false"
     inkscape:zoom="50.160387"
     inkscape:cx="10.097609"
     inkscape:cy="7.2965944"
     inkscape:window-width="1277"
     inkscape:window-height="1415"
     inkscape:window-x="0"
     inkscape:window-y="0"
     inkscape:window-maximized="1"
     inkscape:current-layer="svg795" />
  <path
     style="fill:none;stroke:#000000;stroke-width:0.75236;stroke-dasharray:none;stroke-opacity:1"
     id="path1596"
     sodipodi:type="arc"
     sodipodi:cx="7.9568591"
     sodipodi:cy="7.9947844"
     sodipodi:rx="1.7695997"
     sodipodi:ry="1.7695997"
     sodipodi:start="5.0204012"
     sodipodi:end="5.0202219"
     sodipodi:open="true"
     sodipodi:arc-type="chord"
     d="M 8.4933398,6.3084654 A 1.7695997,1.7695997 0 0 1 9.6432021,8.5311895 1.7695997,1.7695997 0 0 1 7.4205296,9.6811514 1.7695997,1.7695997 0 0 1 6.2704681,7.4585304 1.7695997,1.7695997 0 0 1 8.4930374,6.3083693 Z" />
  <path
     style="fill:none;stroke:#000000;stroke-width:0.75236;stroke-dasharray:none;stroke-opacity:1"
     id="path1596-3"
     sodipodi:type="arc"
     sodipodi:cx="12.874482"
     sodipodi:cy="2.2445195"
     sodipodi:rx="1.7695997"
     sodipodi:ry="1.7695997"
     sodipodi:start="5.0204012"
     sodipodi:end="5.0202219"
     sodipodi:open="true"
     sodipodi:arc-type="chord"
     d="M 13.410963,0.55820056 A 1.7695997,1.7695997 0 0 1 14.560825,2.7809246 1.7695997,1.7695997 0 0 1 12.338153,3.9308865 1.7695997,1.7695997 0 0 1 11.188091,1.7082656 1.7695997,1.7695997 0 0 1 13.41066,0.55810439 Z" />
  <path
     style="fill:none;stroke:#000000;stroke-width:0.75236;stroke-dasharray:none;stroke-opacity:1"
     id="path1596-5"
     sodipodi:type="arc"
     sodipodi:cx="13.156937"
     sodipodi:cy="13.655727"
     sodipodi:rx="1.7695997"
     sodipodi:ry="1.7695997"
     sodipodi:start="5.0204012"
     sodipodi:end="5.0202219"
     sodipodi:open="true"
     sodipodi:arc-type="chord"
     d="m 13.693417,11.969408 a 1.7695997,1.7695997 0 0 1 1.149863,2.222724 1.7695997,1.7695997 0 0 1 -2.222673,1.149962 1.7695997,1.7695997 0 0 1 -1.150061,-2.222621 1.7695997,1.7695997 0 0 1 2.222569,-1.150161 z" />
  <path
     style="fill:none;stroke:#000000;stroke-width:0.75236;stroke-dasharray:none;stroke-opacity:1"
     id="path1596-6"
     sodipodi:type="arc"
     sodipodi:cx="3.1789439"
     sodipodi:cy="2.4199715"
     sodipodi:rx="1.7695997"
     sodipodi:ry="1.7695997"
     sodipodi:start="5.0204012"
     sodipodi:end="5.0202219"
     sodipodi:open="true"
     sodipodi:arc-type="chord"
     d="M 3.7154246,0.73365255 A 1.7695997,1.7695997 0 0 1 4.8652868,2.9563766 1.7695997,1.7695997 0 0 1 2.6426144,4.1063385 1.7695997,1.7695997 0 0 1 1.4925528,1.8837175 1.7695997,1.7695997 0 0 1 3.7151222,0.73355639 Z" />
  <path
     style="fill:none;stroke:#000000;stroke-width:0.75236;stroke-dasharray:none;stroke-opacity:1"
     id="path1596-2"
     sodipodi:type="arc"
     sodipodi:cx="2.3578274"
     sodipodi:cy="12.117693"
     sodipodi:rx="1.7695997"
     sodipodi:ry="1.7695997"
     sodipodi:start="5.0204012"
     sodipodi:end="5.0202219"
     sodipodi:open="true"
     sodipodi:arc-type="chord"
     d="M 2.8943081,10.431374 A 1.7695997,1.7695997 0 0 1 4.0441704,12.654098 1.7695997,1.7695997 0 0 1 1.8214979,13.80406 1.7695997,1.7695997 0 0 1 0.67143638,11.581439 1.7695997,1.7695997 0 0 1 2.8940058,10.431278 Z" />
  <path
     style="fill:none;stroke:#000000;stroke-width:0.5;stroke-dasharray:none;stroke-opacity:1"
     d="M 9.4010937,6.262256 11.461282,3.9879109 Z"
     id="path2201" />
  <path
     style="fill:none;stroke:#000000;stroke-width:0.5;stroke-dasharray:none;stroke-opacity:1"
     d="M 9.5051349,9.6731896 11.601379,11.990288 Z"
     id="path2203" />
  <path
     style="fill:none;stroke:#000000;stroke-width:0.5;stroke-dasharray:none;stroke-opacity:1"
     d="M 4.1534736,10.688137 Z"
     id="path2205" />
  <path
     style="fill:none;stroke:#000000;stroke-width:0.5;stroke-dasharray:none;stroke-opacity:1"
     d="M 4.3047851,10.865848 Z"
     id="path2207" />
  <path
     style="fill:none;stroke:#000000;stroke-width:0.5;stroke-dasharray:none;stroke-opacity:1"
     d="M 6.2172442,9.3881664 4.1962271,10.86725 Z"
     id="path2227" />
  <path
     style="fill:none;stroke:#000000;stroke-width:0.5;stroke-dasharray:none;stroke-opacity:1"
     d="M 6.5008656,6.2744824 4.6235283,4.1065927 Z"
     id="path2229" />
</svg>
